<?xml version="1.0" encoding="UTF-8" standalone="no"?>
<!DOCTYPE svg PUBLIC "-//W3C//DTD SVG 1.1//EN" "http://www.w3.org/Graphics/SVG/1.1/DTD/svg11.dtd">
<svg width="100%" height="100%" viewBox="0 0 1165 565" version="1.1" xmlns="http://www.w3.org/2000/svg" xml:space="preserve" style="fill-rule:evenodd;clip-rule:evenodd;stroke-linejoin:round;stroke-miterlimit:2;">
    <g transform="matrix(2.66667,0,0,2.66667,-165.573,-38.9675)">
        <g id="Ebene-1" transform="matrix(1,0,0,1,91.8418,-4.40678)">
            <path id="path1518" d="M8.524,228.337C8.524,226.207 8.901,225.773 13.146,223.028C36.618,207.844 49.172,183.812 49.172,154.063C49.172,137.567 49.274,137.883 43.287,135.989C33.807,132.992 23.418,126.146 15.903,117.944C12.509,114.24 11.092,113.249 6.619,111.445C-18.13,101.466 -27.952,83.973 -29.467,47.175C-30.238,28.449 -30.225,28.426 -18.974,28.426L-10.96,28.426L-10.96,19.02L130.131,19.02L130.131,27.754L138.817,27.754C148.35,27.754 149.617,28.213 149.612,31.665C149.533,77.15 135.785,104.807 109.303,112.756C108.379,113.033 105.054,115.872 101.913,119.065C93.168,127.953 77.524,137.267 71.338,137.267C68.987,137.267 68.471,160.842 70.603,170.86C75.295,192.899 87.262,211.113 104.153,221.921C109.704,225.474 109.929,225.714 109.951,228.136L109.975,230.655L8.524,230.655L8.524,228.337ZM1.061,95.948C-6.632,80.335 -10.96,61.413 -10.96,43.392L-10.96,35.816L-22.588,35.816L-22.183,48.078C-21.34,73.564 -16.577,87.153 -5.198,96.539C-1.739,99.392 3.791,103.01 4.264,102.73C4.324,102.695 2.882,99.643 1.061,95.948ZM119.1,99.913C133.568,90.309 140.146,73.809 141.907,42.703L142.373,34.472L139.779,34.478C138.352,34.482 135.598,34.675 133.658,34.908L130.131,35.332L130.131,41.214C130.131,60.761 125.743,80.095 117.593,96.452C115.982,99.685 114.843,102.331 115.061,102.331C115.279,102.331 117.097,101.243 119.1,99.913L119.1,99.913Z" style="fill:rgb(226,193,81);fill-rule:nonzero;"/>
            <g id="text1434">
            </g>
            <g transform="matrix(1,0,0,1,176.519,69.0791)">
                <g id="text1074">
                    <text x="0px" y="0px" style="font-family:'BebasNeue-Regular', 'Bebas Neue', sans-serif;font-size:69.843px;fill:white;">Grand</text>
                </g>
            </g>
            <g transform="matrix(1,0,0,1,177.778,148.428)">
                <g id="text1078">
                    <text x="0px" y="0px" style="font-family:'BebasNeue-Regular', 'Bebas Neue', sans-serif;font-size:69.843px;fill:white;">Prix</text>
                </g>
            </g>
            <g transform="matrix(1,0,0,1,175.259,225.258)">
                <g id="text1082">
                    <text x="0px" y="0px" style="font-family:'BebasNeue-Regular', 'Bebas Neue', sans-serif;font-size:69.843px;fill:white;">Organizer</text>
                </g>
            </g>
        </g>
    </g>
</svg>
